{
   "accessors" : [
      {
         "bufferView" : 2,
         "byteOffset" : 0,
         "componentType" : 5126,
         "count" : 16,
         "max" : [ 1, 1, 1, 1 ],
         "min" : [ 1, 1, 1, 1 ],
         "name" : "accessor_color_m0-PolyGem25_-723196",
         "type" : "VEC4"
      },
      {
         "bufferView" : 2,
         "byteOffset" : 256,
         "componentType" : 5126,
         "count" : 1768,
         "max" : [ 0.9075471758842468, 0.6940805315971375, 0.7226724624633789, 1 ],
         "min" : [ 0.006584956776350737, 0.006584956776350737, 0.006584956776350737, 1 ],
         "name" : "accessor_color_m1-PolyPaper23_-723214",
         "type" : "VEC4"
      },
      {
         "bufferView" : 0,
         "byteOffset" : 0,
         "componentType" : 5123,
         "count" : 36,
         "max" : [ 15 ],
         "min" : [ 0 ],
         "name" : "accessor_indices_0_m0-PolyGem25_-723196",
         "type" : "SCALAR"
      },
      {
         "bufferView" : 0,
         "byteOffset" : 72,
         "componentType" : 5123,
         "count" : 2964,
         "max" : [ 1767 ],
         "min" : [ 0 ],
         "name" : "accessor_indices_0_m1-PolyPaper23_-723214",
         "type" : "SCALAR"
      },
      {
         "bufferView" : 1,
         "byteOffset" : 192,
         "componentType" : 5126,
         "count" : 16,
         "max" : [ 5.817709e-07, 2.039606e-05, 1 ],
         "min" : [ -2.194643e-06, -6.384168e-06, -1 ],
         "name" : "accessor_normal_m0-PolyGem25_-723196",
         "type" : "VEC3"
      },
      {
         "bufferView" : 1,
         "byteOffset" : 21600,
         "componentType" : 5126,
         "count" : 1768,
         "max" : [ 1, 1, 1 ],
         "min" : [ -1, -1, -1 ],
         "name" : "accessor_normal_m1-PolyPaper23_-723214",
         "type" : "VEC3"
      },
      {
         "bufferView" : 1,
         "byteOffset" : 0,
         "componentType" : 5126,
         "count" : 16,
         "max" : [ -0.5000082, 1.78019, 0.06034046 ],
         "min" : [ -0.8073751, 1.565454, -0.2592202 ],
         "name" : "accessor_position_m0-PolyGem25_-723196",
         "type" : "VEC3"
      },
      {
         "bufferView" : 1,
         "byteOffset" : 384,
         "componentType" : 5126,
         "count" : 1768,
         "max" : [ -0.3916037, 1.901781, 0.08113415 ],
         "min" : [ -0.9341921, 1.506963, -0.2696165 ],
         "name" : "accessor_position_m1-PolyPaper23_-723214",
         "type" : "VEC3"
      }
   ],
   "asset" : {
      "copyright" : "Unknown",
      "extras" : {
         "GOOGLE_processor_version" : 294144208
      },
      "generator" : "glTF 1-to-2 Upgrader for Google Blocks",
      "version" : "2.0"
   },
   "bufferViews" : [
      {
         "buffer" : 0,
         "byteLength" : 6000,
         "byteOffset" : 0,
         "name" : "ushortBufferView",
         "target" : 34963
      },
      {
         "buffer" : 0,
         "byteLength" : 42816,
         "byteOffset" : 6000,
         "byteStride" : 12,
         "name" : "vec3BufferView",
         "target" : 34962
      },
      {
         "buffer" : 0,
         "byteLength" : 28544,
         "byteOffset" : 48816,
         "byteStride" : 16,
         "name" : "vec4BufferView",
         "target" : 34962
      }
   ],
   "buffers" : [
      {
         "byteLength" : 77360,
         "name" : "camera",
         "uri" : "camera.bin"
      }
   ],
   "cameras" : [
      {
         "perspective" : {
            "yfov" : 0.7853981633974483,
            "znear" : 0.1000000014901161
         },
         "type" : "perspective"
      }
   ],
   "extensions" : {
      "KHR_lights_punctual" : {
         "lights" : [
            {
               "color" : [ 1, 0.9333333333333333, 0.8666666666666667 ],
               "intensity" : 0.25,
               "name" : "headLight",
               "type" : "directional"
            },
            {
               "color" : [ 1, 0.9333333333333333, 0.8666666666666667 ],
               "intensity" : 0.324999988079071,
               "name" : "keyLight",
               "type" : "directional"
            }
         ]
      }
   },
   "extensionsUsed" : [ "GOOGLE_backgrounds", "GOOGLE_camera_settings", "KHR_lights_punctual" ],
   "extras" : {
      "GOOGLE_initial_camera_motion" : {
         "motionPath" : "FULL_ROTATION"
      },
      "GOOGLE_lighting_rig" : {
         "disableShadows" : false
      }
   },
   "materials" : [
      {
         "alphaMode" : "OPAQUE",
         "doubleSided" : false,
         "name" : "BlocksPaper",
         "pbrMetallicRoughness" : {
            "baseColorFactor" : [ 1, 1, 1, 1 ],
            "metallicFactor" : 0,
            "roughnessFactor" : 0.6
         }
      },
      {
         "alphaMode" : "BLEND",
         "doubleSided" : false,
         "name" : "BlocksGlass",
         "pbrMetallicRoughness" : {
            "baseColorFactor" : [ 0.2, 0.2, 1, 0.3 ],
            "metallicFactor" : 1,
            "roughnessFactor" : 0.4
         }
      },
      {
         "alphaMode" : "OPAQUE",
         "doubleSided" : true,
         "name" : "BlocksGem",
         "pbrMetallicRoughness" : {
            "baseColorFactor" : [ 1, 0.4, 1, 1 ],
            "metallicFactor" : 0,
            "roughnessFactor" : 0.1
         }
      }
   ],
   "meshes" : [
      {
         "name" : "mesh_m0-PolyGem25_-723196",
         "primitives" : [
            {
               "attributes" : {
                  "COLOR_0" : 0,
                  "NORMAL" : 4,
                  "POSITION" : 6
               },
               "indices" : 2,
               "material" : 2,
               "mode" : 4
            }
         ]
      },
      {
         "name" : "mesh_m1-PolyPaper23_-723214",
         "primitives" : [
            {
               "attributes" : {
                  "COLOR_0" : 1,
                  "NORMAL" : 5,
                  "POSITION" : 7
               },
               "indices" : 3,
               "material" : 0,
               "mode" : 4
            }
         ]
      }
   ],
   "nodes" : [
      {
         "mesh" : 0,
         "name" : "node_MeshObject1316079360-PolyGem25"
      },
      {
         "mesh" : 1,
         "name" : "node_MeshObject797359296-PolyPaper23"
      },
      {
         "children" : [ 3 ]
      },
      {
         "children" : [ 4 ],
         "extras" : {
            "isTransformNode" : 1
         },
         "translation" : [ -0.6638898775642877, 1.698307395754213, -0.1222115281687211 ]
      },
      {
         "children" : [ 0, 1 ],
         "translation" : [ 0.6638898775642877, -1.698307395754213, 0.1222115281687211 ]
      },
      {
         "camera" : 0,
         "children" : [ 6 ],
         "rotation" : [
            -0.1217208467908134,
            0.2929312859551262,
            0.03762724002815668,
            0.9476072435207885
         ],
         "translation" : [ -0.07592608779668808, 2.023992776870728, 0.7617428302764893 ]
      },
      {
         "extensions" : {
            "KHR_lights_punctual" : {
               "light" : 0
            }
         },
         "extras" : {
            "isHeadLight" : 1
         },
         "name" : "headLightNode",
         "translation" : [ -0.4360959826272271, 0.2180479913136135, 0.2180479913136135 ]
      },
      {
         "extensions" : {
            "KHR_lights_punctual" : {
               "light" : 1
            }
         },
         "extras" : {
            "isKeyLight" : 1
         },
         "name" : "keyLightNode",
         "rotation" : [ -0.7505326882858236, -0.3752663441429118, 0, 0.5439447166468927 ],
         "scale" : [ 0, 0, 0.4404569424534994 ],
         "translation" : [ -1.107403229432242, 2.631340009805306, -0.5433133852973681 ]
      }
   ],
   "scene" : 0,
   "scenes" : [
      {
         "extensions" : {
            "GOOGLE_backgrounds" : {
               "color" : [ 0.2196078431372549, 0.5568627450980392, 0.2352941176470588 ]
            },
            "GOOGLE_camera_settings" : {}
         },
         "extras" : {
            "GOOGLE_camera_index" : {
               "cameraIndex" : 0,
               "nodeIndex" : 5
            },
            "GOOGLE_geometry_data" : {
               "stats" : {
                  "centroid" : [ -0.666946286978743, 1.750426124898308, -0.1028564428438687 ],
                  "radius" : 0.4360959826272271,
                  "stdev" : 0.2241805826850839
               },
               "visualCenterPoint" : [ -0.6638898775642877, 1.698307395754213, -0.1222115281687211 ]
            },
            "GOOGLE_hemi_light" : {
               "groundColor" : [ 0.2196078431372549, 0.5568627450980392, 0.2352941176470588 ]
            }
         },
         "name" : "defaultScene",
         "nodes" : [ 2, 5, 7 ]
      }
   ]
}
