{"accessors":[{"name":"Cube_1_0_positions","componentType":5126,"count":109,"min":[-0.13392986357212067,-0.10705936700105667,-10.17495059967041],"max":[12.499921798706055,2.4192378520965576,0.10148952901363373],"type":"VEC3","bufferView":0,"byteOffset":0},{"name":"Cube_1_0_normals","componentType":5126,"count":109,"min":[-1,-0.037904709577560425,-0.9075424671173096],"max":[0.19855426251888275,1,0.017139259725809097],"type":"VEC3","bufferView":1,"byteOffset":0},{"name":"Cube_1_0_texcoords","componentType":5126,"count":109,"min":[-9.7947998046875,-4.053609848022461],"max":[10.633630752563477,7.511654853820801],"type":"VEC2","bufferView":2,"byteOffset":0},{"name":"Cube_1_0_indices","componentType":5123,"count":201,"min":[0],"max":[108],"type":"SCALAR","bufferView":3,"byteOffset":0},{"name":"Cube-2_1_0_positions","componentType":5126,"count":63,"min":[3.386807441711426,0.058496519923210144,-10.00641918182373],"max":[12.247123718261719,2.4192378520965576,-4.054493427276611],"type":"VEC3","bufferView":0,"byteOffset":1308},{"name":"Cube-2_1_0_normals","componentType":5126,"count":63,"min":[-1,-0.000019904595319530927,-1],"max":[0.9999805688858032,0.000019896848243661225,1],"type":"VEC3","bufferView":1,"byteOffset":1308},{"name":"Cube-2_1_0_texcoords","componentType":5126,"count":63,"min":[0.11807233095169067,1.4136955738067627],"max":[0.8960372805595398,1.8908131122589111],"type":"VEC2","bufferView":2,"byteOffset":872},{"name":"Cube-2_1_0_indices","componentType":5123,"count":129,"min":[0],"max":[62],"type":"SCALAR","bufferView":3,"byteOffset":404},{"name":"Cube-3_1_0_positions","componentType":5126,"count":17,"min":[0.12122312933206558,0.0392911359667778,-10.004073143005371],"max":[12.247123718261719,0.06136060506105423,-1.9201385974884033],"type":"VEC3","bufferView":0,"byteOffset":2064},{"name":"Cube-3_1_0_normals","componentType":5126,"count":17,"min":[0.10646182298660278,0.9942188858985901,0.013954889960587025],"max":[0.10646182298660278,0.9942188858985901,0.013954889960587025],"type":"VEC3","bufferView":1,"byteOffset":2064},{"name":"Cube-3_1_0_texcoords","componentType":5126,"count":17,"min":[-1.173435926437378,0.7317836284637451],"max":[0.9287667870521545,2.2731313705444336],"type":"VEC2","bufferView":2,"byteOffset":1376},{"name":"Cube-3_1_0_indices","componentType":5123,"count":45,"min":[0],"max":[16],"type":"SCALAR","bufferView":3,"byteOffset":664},{"name":"Cube-4_1_0_positions","componentType":5126,"count":126,"min":[-0.136330708861351,0.06136060506105423,-10.17495059967041],"max":[12.499921798706055,2.5902369022369385,-1.7452178001403809],"type":"VEC3","bufferView":0,"byteOffset":2268},{"name":"Cube-4_1_0_normals","componentType":5126,"count":126,"min":[-1,-0.000054132255172589794,-0.9989170432090759],"max":[1,1,1],"type":"VEC3","bufferView":1,"byteOffset":2268},{"name":"Cube-4_1_0_texcoords","componentType":5126,"count":126,"min":[0.11807233095169067,1.0207765102386475],"max":[0.801185131072998,1.9391623735427856],"type":"VEC2","bufferView":2,"byteOffset":1512},{"name":"Cube-4_1_0_indices","componentType":5123,"count":240,"min":[0],"max":[125],"type":"SCALAR","bufferView":3,"byteOffset":756},{"name":"Cube-5_1_0_positions","componentType":5126,"count":167,"min":[-0.136330708861351,-0.10705936700105667,-10.17495059967041],"max":[12.499921798706055,2.421816825866699,0.10148952901363373],"type":"VEC3","bufferView":0,"byteOffset":3780},{"name":"Cube-5_1_0_normals","componentType":5126,"count":167,"min":[-1,-1,-1],"max":[1,1,1],"type":"VEC3","bufferView":1,"byteOffset":3780},{"name":"Cube-5_1_0_texcoords","componentType":5126,"count":167,"min":[0,1.069708228111267],"max":[0.8958811163902283,2],"type":"VEC2","bufferView":2,"byteOffset":2520},{"name":"Cube-5_1_0_indices","componentType":5123,"count":297,"min":[0],"max":[166],"type":"SCALAR","bufferView":3,"byteOffset":1236},{"name":"Plane_1_0_positions","componentType":5126,"count":16,"min":[5.889551639556885,1.3738502264022827,-9.986721992492676],"max":[6.670735836029053,2.155034065246582,-9.934033393859863],"type":"VEC3","bufferView":0,"byteOffset":5784},{"name":"Plane_1_0_normals","componentType":5126,"count":16,"min":[-0.5773502588272095,-0.5773501992225647,-1],"max":[0.5773502588272095,0.5773503184318542,1],"type":"VEC3","bufferView":1,"byteOffset":5784},{"name":"Plane_1_0_texcoords","componentType":5126,"count":16,"min":[0,1],"max":[1,2],"type":"VEC2","bufferView":2,"byteOffset":3856},{"name":"Plane_1_0_indices","componentType":5123,"count":54,"min":[0],"max":[15],"type":"SCALAR","bufferView":3,"byteOffset":1832},{"name":"Plane-2_1_0_positions","componentType":5126,"count":8,"min":[5.889551639556885,1.3738502264022827,-9.986721992492676],"max":[6.670735836029053,2.155034065246582,-9.934033393859863],"type":"VEC3","bufferView":0,"byteOffset":5976},{"name":"Plane-2_1_0_normals","componentType":5126,"count":8,"min":[-0.5773502588272095,-0.5773501992225647,-0.5773503184318542],"max":[0.5773502588272095,0.5773503184318542,0.8164966106414795],"type":"VEC3","bufferView":1,"byteOffset":5976},{"name":"Plane-2_1_0_texcoords","componentType":5126,"count":8,"min":[0,1],"max":[1,2],"type":"VEC2","bufferView":2,"byteOffset":3984},{"name":"Plane-2_1_0_indices","componentType":5123,"count":24,"min":[0],"max":[7],"type":"SCALAR","bufferView":3,"byteOffset":1940},{"name":"Plane.001_1_0_positions","componentType":5126,"count":56,"min":[7.238687992095947,0.7465437650680542,-9.986721992492676],"max":[8.019871711730957,2.2092318534851074,-9.934033393859863],"type":"VEC3","bufferView":0,"byteOffset":6072},{"name":"Plane.001_1_0_normals","componentType":5126,"count":56,"min":[-0.0000010401513463875744,-0.0000011354750313330442,-1],"max":[0.0000010401513463875744,8.667573183629429e-7,1],"type":"VEC3","bufferView":1,"byteOffset":6072},{"name":"Plane.001_1_0_texcoords","componentType":5126,"count":56,"min":[0,1],"max":[1,2],"type":"VEC2","bufferView":2,"byteOffset":4048},{"name":"Plane.001_1_0_indices","componentType":5123,"count":120,"min":[0],"max":[55],"type":"SCALAR","bufferView":3,"byteOffset":1988},{"name":"Plane.001-2_1_0_positions","componentType":5126,"count":32,"min":[7.238687992095947,0.7465437650680542,-9.986721992492676],"max":[8.019871711730957,2.2092318534851074,-9.934033393859863],"type":"VEC3","bufferView":0,"byteOffset":6744},{"name":"Plane.001-2_1_0_normals","componentType":5126,"count":32,"min":[-1,-1,-1.3435884227419592e-7],"max":[1,1,1],"type":"VEC3","bufferView":1,"byteOffset":6744},{"name":"Plane.001-2_1_0_texcoords","componentType":5126,"count":32,"min":[0,1],"max":[1,2],"type":"VEC2","bufferView":2,"byteOffset":4496},{"name":"Plane.001-2_1_0_indices","componentType":5123,"count":48,"min":[0],"max":[31],"type":"SCALAR","bufferView":3,"byteOffset":2228},{"name":"Plane.001-3_1_0_positions","componentType":5126,"count":20,"min":[7.338997840881348,0.8713583946228027,-9.960445404052734],"max":[7.919562339782715,2.0791895389556885,-9.934033393859863],"type":"VEC3","bufferView":0,"byteOffset":7128},{"name":"Plane.001-3_1_0_normals","componentType":5126,"count":20,"min":[-1,-1,-1.3435884227419592e-7],"max":[1,1,1],"type":"VEC3","bufferView":1,"byteOffset":7128},{"name":"Plane.001-3_1_0_texcoords","componentType":5126,"count":20,"min":[0,1],"max":[1,2],"type":"VEC2","bufferView":2,"byteOffset":4752},{"name":"Plane.001-3_1_0_indices","componentType":5123,"count":30,"min":[0],"max":[19],"type":"SCALAR","bufferView":3,"byteOffset":2324},{"name":"Plane.002_1_0_positions","componentType":5126,"count":16,"min":[8.586714744567871,1.3738502264022827,-9.986721992492676],"max":[9.367897987365723,2.155034065246582,-9.934033393859863],"type":"VEC3","bufferView":0,"byteOffset":7368},{"name":"Plane.002_1_0_normals","componentType":5126,"count":16,"min":[-0.5773502588272095,-0.5773501992225647,-1],"max":[0.5773502588272095,0.5773503184318542,1],"type":"VEC3","bufferView":1,"byteOffset":7368},{"name":"Plane.002_1_0_texcoords","componentType":5126,"count":16,"min":[0,1],"max":[1,2],"type":"VEC2","bufferView":2,"byteOffset":4912},{"name":"Plane.002_1_0_indices","componentType":5123,"count":54,"min":[0],"max":[15],"type":"SCALAR","bufferView":3,"byteOffset":2384},{"name":"Plane.002-2_1_0_positions","componentType":5126,"count":8,"min":[8.586714744567871,1.3738502264022827,-9.986721992492676],"max":[9.367897987365723,2.155034065246582,-9.934033393859863],"type":"VEC3","bufferView":0,"byteOffset":7560},{"name":"Plane.002-2_1_0_normals","componentType":5126,"count":8,"min":[-0.5773502588272095,-0.5773501992225647,-0.5773503184318542],"max":[0.5773502588272095,0.5773503184318542,0.8164966106414795],"type":"VEC3","bufferView":1,"byteOffset":7560},{"name":"Plane.002-2_1_0_texcoords","componentType":5126,"count":8,"min":[0,1],"max":[1,2],"type":"VEC2","bufferView":2,"byteOffset":5040},{"name":"Plane.002-2_1_0_indices","componentType":5123,"count":24,"min":[0],"max":[7],"type":"SCALAR","bufferView":3,"byteOffset":2492}],"asset":{"generator":"obj2gltf","version":"2.0"},"buffers":[{"name":"houseonly","byteLength":22956,"uri":"data:application/octet-stream;base64,"}],"bufferViews":[{"name":"bufferView_0","buffer":0,"byteLength":7656,"byteOffset":0,"byteStride":12,"target":34962},{"name":"bufferView_1","buffer":0,"byteLength":7656,"byteOffset":7656,"byteStride":12,"target":34962},{"name":"bufferView_2","buffer":0,"byteLength":5104,"byteOffset":15312,"byteStride":8,"target":34962},{"name":"bufferView_3","buffer":0,"byteLength":2540,"byteOffset":20416,"target":34963}],"materials":[{"name":"floor outside","pbrMetallicRoughness":{"baseColorFactor":[0.5,0.5,0.5,1],"metallicFactor":0,"roughnessFactor":1},"emissiveFactor":[0,0,0],"alphaMode":"OPAQUE","doubleSided":false},{"name":"wall inside","pbrMetallicRoughness":{"baseColorFactor":[0.5,0.5,0.5,1],"metallicFactor":0,"roughnessFactor":1},"emissiveFactor":[0,0,0],"alphaMode":"OPAQUE","doubleSided":false},{"name":"FLOOR INSIDE","pbrMetallicRoughness":{"baseColorFactor":[0.5,0.5,0.5,1],"metallicFactor":0,"roughnessFactor":1},"emissiveFactor":[0,0,0],"alphaMode":"OPAQUE","doubleSided":false},{"name":"wall outside.001","pbrMetallicRoughness":{"baseColorFactor":[0.5,0.5,0.5,1],"metallicFactor":0,"roughnessFactor":1},"emissiveFactor":[0,0,0],"alphaMode":"OPAQUE","doubleSided":false},{"name":"BLANK SPACE","pbrMetallicRoughness":{"baseColorFactor":[0.5,0.5,0.5,1],"metallicFactor":0,"roughnessFactor":1},"emissiveFactor":[0,0,0],"alphaMode":"OPAQUE","doubleSided":false},{"name":"Material.001","pbrMetallicRoughness":{"baseColorFactor":[0.5,0.5,0.5,1],"metallicFactor":0,"roughnessFactor":1},"emissiveFactor":[0,0,0],"alphaMode":"OPAQUE","doubleSided":false},{"name":"Material.007","pbrMetallicRoughness":{"baseColorFactor":[0.5,0.5,0.5,1],"metallicFactor":0,"roughnessFactor":1},"emissiveFactor":[0,0,0],"alphaMode":"OPAQUE","doubleSided":false},{"name":"Material.003","pbrMetallicRoughness":{"baseColorFactor":[0.5,0.5,0.5,1],"metallicFactor":0,"roughnessFactor":1},"emissiveFactor":[0,0,0],"alphaMode":"OPAQUE","doubleSided":false},{"name":"Material.004","pbrMetallicRoughness":{"baseColorFactor":[0.5,0.5,0.5,1],"metallicFactor":0,"roughnessFactor":1},"emissiveFactor":[0,0,0],"alphaMode":"OPAQUE","doubleSided":false},{"name":"Material.005","pbrMetallicRoughness":{"baseColorFactor":[0.5,0.5,0.5,1],"metallicFactor":0,"roughnessFactor":1},"emissiveFactor":[0,0,0],"alphaMode":"OPAQUE","doubleSided":false}],"meshes":[{"name":"Cube_1","primitives":[{"attributes":{"POSITION":0,"NORMAL":1,"TEXCOORD_0":2},"indices":3,"material":0,"mode":4}]},{"name":"Cube-2_1","primitives":[{"attributes":{"POSITION":4,"NORMAL":5,"TEXCOORD_0":6},"indices":7,"material":1,"mode":4}]},{"name":"Cube-3_1","primitives":[{"attributes":{"POSITION":8,"NORMAL":9,"TEXCOORD_0":10},"indices":11,"material":2,"mode":4}]},{"name":"Cube-4_1","primitives":[{"attributes":{"POSITION":12,"NORMAL":13,"TEXCOORD_0":14},"indices":15,"material":3,"mode":4}]},{"name":"Cube-5_1","primitives":[{"attributes":{"POSITION":16,"NORMAL":17,"TEXCOORD_0":18},"indices":19,"material":4,"mode":4}]},{"name":"Plane_1","primitives":[{"attributes":{"POSITION":20,"NORMAL":21,"TEXCOORD_0":22},"indices":23,"material":5,"mode":4}]},{"name":"Plane-2_1","primitives":[{"attributes":{"POSITION":24,"NORMAL":25,"TEXCOORD_0":26},"indices":27,"material":6,"mode":4}]},{"name":"Plane.001_1","primitives":[{"attributes":{"POSITION":28,"NORMAL":29,"TEXCOORD_0":30},"indices":31,"material":7,"mode":4}]},{"name":"Plane.001-2_1","primitives":[{"attributes":{"POSITION":32,"NORMAL":33,"TEXCOORD_0":34},"indices":35,"material":8,"mode":4}]},{"name":"Plane.001-3_1","primitives":[{"attributes":{"POSITION":36,"NORMAL":37,"TEXCOORD_0":38},"indices":39,"material":9,"mode":4}]},{"name":"Plane.002_1","primitives":[{"attributes":{"POSITION":40,"NORMAL":41,"TEXCOORD_0":42},"indices":43,"material":5,"mode":4}]},{"name":"Plane.002-2_1","primitives":[{"attributes":{"POSITION":44,"NORMAL":45,"TEXCOORD_0":46},"indices":47,"material":6,"mode":4}]}],"nodes":[{"name":"Cube","mesh":0},{"name":"Cube-2","mesh":1},{"name":"Cube-3","mesh":2},{"name":"Cube-4","mesh":3},{"name":"Cube-5","mesh":4},{"name":"Plane","mesh":5},{"name":"Plane-2","mesh":6},{"name":"Plane.001","mesh":7},{"name":"Plane.001-2","mesh":8},{"name":"Plane.001-3","mesh":9},{"name":"Plane.002","mesh":10},{"name":"Plane.002-2","mesh":11}],"scene":0,"scenes":[{"nodes":[0,1,2,3,4,5,6,7,8,9,10,11]}]}