{
   "accessors" : [
      {
         "bufferView" : 2,
         "byteOffset" : 0,
         "componentType" : 5126,
         "count" : 5088,
         "max" : [ 1, 1, 1, 1 ],
         "min" : [ 0.006584956776350737, 0.006584956776350737, 0.006584956776350737, 1 ],
         "name" : "accessor_color_m0-PolyPaper21_-65656",
         "type" : "VEC4"
      },
      {
         "bufferView" : 2,
         "byteOffset" : 81408,
         "componentType" : 5126,
         "count" : 240,
         "max" : [ 1, 1, 1, 1 ],
         "min" : [ 1, 1, 1, 1 ],
         "name" : "accessor_color_m2-PolyGlass24_-65668",
         "type" : "VEC4"
      },
      {
         "bufferView" : 0,
         "byteOffset" : 0,
         "componentType" : 5123,
         "count" : 8016,
         "max" : [ 5087 ],
         "min" : [ 0 ],
         "name" : "accessor_indices_0_m0-PolyPaper21_-65656",
         "type" : "SCALAR"
      },
      {
         "bufferView" : 0,
         "byteOffset" : 16032,
         "componentType" : 5123,
         "count" : 408,
         "max" : [ 239 ],
         "min" : [ 0 ],
         "name" : "accessor_indices_0_m2-PolyGlass24_-65668",
         "type" : "SCALAR"
      },
      {
         "bufferView" : 1,
         "byteOffset" : 61056,
         "componentType" : 5126,
         "count" : 5088,
         "max" : [ 1, 1, 1 ],
         "min" : [ -1, -1, -1 ],
         "name" : "accessor_normal_m0-PolyPaper21_-65656",
         "type" : "VEC3"
      },
      {
         "bufferView" : 1,
         "byteOffset" : 124992,
         "componentType" : 5126,
         "count" : 240,
         "max" : [ 1, 1, 1 ],
         "min" : [ -1, -1, -1 ],
         "name" : "accessor_normal_m2-PolyGlass24_-65668",
         "type" : "VEC3"
      },
      {
         "bufferView" : 1,
         "byteOffset" : 0,
         "componentType" : 5126,
         "count" : 5088,
         "max" : [ 2.570004, 1.719917, 0.9251173 ],
         "min" : [ 0.7100037, -0.1600379, -0.6299953 ],
         "name" : "accessor_position_m0-PolyPaper21_-65656",
         "type" : "VEC3"
      },
      {
         "bufferView" : 1,
         "byteOffset" : 122112,
         "componentType" : 5126,
         "count" : 240,
         "max" : [ 2.504935, 1.645016, 0.9000904 ],
         "min" : [ 0.7500394, 0.1799967, 0.380024 ],
         "name" : "accessor_position_m2-PolyGlass24_-65668",
         "type" : "VEC3"
      }
   ],
   "asset" : {
      "copyright" : "Unknown",
      "extras" : {
         "GOOGLE_processor_version" : 294144208
      },
      "generator" : "glTF 1-to-2 Upgrader for Google Blocks",
      "version" : "2.0"
   },
   "bufferViews" : [
      {
         "buffer" : 0,
         "byteLength" : 16848,
         "byteOffset" : 0,
         "name" : "ushortBufferView",
         "target" : 34963
      },
      {
         "buffer" : 0,
         "byteLength" : 127872,
         "byteOffset" : 16848,
         "byteStride" : 12,
         "name" : "vec3BufferView",
         "target" : 34962
      },
      {
         "buffer" : 0,
         "byteLength" : 85248,
         "byteOffset" : 144720,
         "byteStride" : 16,
         "name" : "vec4BufferView",
         "target" : 34962
      }
   ],
   "buffers" : [
      {
         "byteLength" : 229968,
         "name" : "tv",
         "uri" : "tv.bin"
      }
   ],
   "cameras" : [
      {
         "perspective" : {
            "yfov" : 0.7853981633974483,
            "znear" : 0.1000000014901161
         },
         "type" : "perspective"
      }
   ],
   "extensions" : {
      "KHR_lights_punctual" : {
         "lights" : [
            {
               "color" : [ 1, 0.9333333333333333, 0.8666666666666667 ],
               "intensity" : 0.25,
               "name" : "headLight",
               "type" : "directional"
            },
            {
               "color" : [ 1, 0.9333333333333333, 0.8666666666666667 ],
               "intensity" : 0.324999988079071,
               "name" : "keyLight",
               "type" : "directional"
            }
         ]
      }
   },
   "extensionsUsed" : [ "GOOGLE_backgrounds", "GOOGLE_camera_settings", "KHR_lights_punctual" ],
   "extras" : {
      "GOOGLE_initial_camera_motion" : {
         "motionPath" : "FULL_ROTATION"
      },
      "GOOGLE_lighting_rig" : {
         "disableShadows" : false
      }
   },
   "materials" : [
      {
         "alphaMode" : "OPAQUE",
         "doubleSided" : false,
         "name" : "BlocksPaper",
         "pbrMetallicRoughness" : {
            "baseColorFactor" : [ 1, 1, 1, 1 ],
            "metallicFactor" : 0,
            "roughnessFactor" : 0.6
         }
      },
      {
         "alphaMode" : "BLEND",
         "doubleSided" : false,
         "name" : "BlocksGlass",
         "pbrMetallicRoughness" : {
            "baseColorFactor" : [ 0.2, 0.2, 1, 0.3 ],
            "metallicFactor" : 1,
            "roughnessFactor" : 0.4
         }
      },
      {
         "alphaMode" : "OPAQUE",
         "doubleSided" : true,
         "name" : "BlocksGem",
         "pbrMetallicRoughness" : {
            "baseColorFactor" : [ 1, 0.4, 1, 1 ],
            "metallicFactor" : 0,
            "roughnessFactor" : 0.1
         }
      }
   ],
   "meshes" : [
      {
         "name" : "mesh_m0-PolyPaper21_-65656",
         "primitives" : [
            {
               "attributes" : {
                  "COLOR_0" : 0,
                  "NORMAL" : 4,
                  "POSITION" : 6
               },
               "indices" : 2,
               "material" : 0,
               "mode" : 4
            }
         ]
      },
      {
         "name" : "mesh_m2-PolyGlass24_-65668",
         "primitives" : [
            {
               "attributes" : {
                  "COLOR_0" : 1,
                  "NORMAL" : 5,
                  "POSITION" : 7
               },
               "indices" : 3,
               "material" : 1,
               "mode" : 4
            }
         ]
      }
   ],
   "nodes" : [
      {
         "mesh" : 0,
         "name" : "node_MeshObject1482809344-PolyPaper21"
      },
      {
         "mesh" : 1,
         "name" : "node_MeshObject242575360-PolyGlass24"
      },
      {
         "children" : [ 3 ]
      },
      {
         "children" : [ 4 ],
         "extras" : {
            "isTransformNode" : 1
         },
         "translation" : [ 1.637689079481007, 0.8717606111538038, 0.1654217146103039 ]
      },
      {
         "children" : [ 0, 1 ],
         "translation" : [ -1.637689079481007, -0.8717606111538038, -0.1654217146103039 ]
      },
      {
         "camera" : 0,
         "children" : [ 6 ],
         "rotation" : [
            -0.2219240542792779,
            -0.2518950318538155,
            -0.05946428056213483,
            0.9400864887853889
         ],
         "translation" : [ 0.2174309725880805, 2.29201871804673, 2.624861000379609 ]
      },
      {
         "extensions" : {
            "KHR_lights_punctual" : {
               "light" : 0
            }
         },
         "extras" : {
            "isHeadLight" : 1
         },
         "name" : "headLightNode",
         "translation" : [ -2.643587208310664, 1.321793604155332, 1.321793604155332 ]
      },
      {
         "extensions" : {
            "KHR_lights_punctual" : {
               "light" : 1
            }
         },
         "extras" : {
            "isKeyLight" : 1
         },
         "name" : "keyLightNode",
         "rotation" : [ -0.7505326882858236, -0.3752663441429118, 0, 0.5439447166468927 ],
         "scale" : [ 0, 0, 2.670023080393771 ],
         "translation" : [ -1.472050667576926, 5.598179260515187, -1.874759876878377 ]
      }
   ],
   "scene" : 0,
   "scenes" : [
      {
         "extensions" : {
            "GOOGLE_backgrounds" : {
               "color" : [ 0.6196078431372549, 0.6196078431372549, 0.6196078431372549 ]
            },
            "GOOGLE_camera_settings" : {
               "pivot" : [ 0, 0, 0 ]
            }
         },
         "extras" : {
            "GOOGLE_camera_index" : {
               "cameraIndex" : 0,
               "nodeIndex" : 5
            },
            "GOOGLE_geometry_data" : {
               "stats" : {
                  "centroid" : [ 1.197972412816845, 0.2581330997276458, 0.7952632035153943 ],
                  "radius" : 2.643587208310664,
                  "stdev" : 0.625256769264231
               },
               "visualCenterPoint" : [ 1.637689079481007, 0.8717606111538038, 0.1654217146103039 ]
            },
            "GOOGLE_hemi_light" : {
               "groundColor" : [ 0.6196078431372549, 0.6196078431372549, 0.6196078431372549 ]
            }
         },
         "name" : "defaultScene",
         "nodes" : [ 2, 5, 7 ]
      }
   ]
}
